<?xml version="1.0" encoding="UTF-8" standalone="no"?>
<!-- Created with Inkscape (http://www.inkscape.org/) -->

<svg
   xmlns:dc="http://purl.org/dc/elements/1.1/"
   xmlns:cc="http://creativecommons.org/ns#"
   xmlns:rdf="http://www.w3.org/1999/02/22-rdf-syntax-ns#"
   xmlns:svg="http://www.w3.org/2000/svg"
   xmlns="http://www.w3.org/2000/svg"
   xmlns:sodipodi="http://sodipodi.sourceforge.net/DTD/sodipodi-0.dtd"
   xmlns:inkscape="http://www.inkscape.org/namespaces/inkscape"
   width="1211.9375"
   height="781.72394"
   id="svg2"
   version="1.1"
   inkscape:version="0.48.5 r10040"
   sodipodi:docname="switchmode.svg">
  <defs
     id="defs4" />
  <sodipodi:namedview
     id="base"
     pagecolor="#ffffff"
     bordercolor="#666666"
     borderopacity="1.0"
     inkscape:pageopacity="0.0"
     inkscape:pageshadow="2"
     inkscape:zoom="0.49497475"
     inkscape:cx="310.55449"
     inkscape:cy="374.41304"
     inkscape:document-units="px"
     inkscape:current-layer="layer1"
     showgrid="false"
     inkscape:window-width="1918"
     inkscape:window-height="1061"
     inkscape:window-x="0"
     inkscape:window-y="0"
     inkscape:window-maximized="0"
     fit-margin-top="0"
     fit-margin-left="0"
     fit-margin-right="0"
     fit-margin-bottom="0" />
  <metadata
     id="metadata7">
    <rdf:RDF>
      <cc:Work
         rdf:about="">
        <dc:format>image/svg+xml</dc:format>
        <dc:type
           rdf:resource="http://purl.org/dc/dcmitype/StillImage" />
        <dc:title />
      </cc:Work>
    </rdf:RDF>
  </metadata>
  <g
     inkscape:label="Layer 1"
     inkscape:groupmode="layer"
     id="layer1"
     transform="translate(263.125,-112.60678)"
     style="display:inline">
    <path
       style="fill:#3da639;fill-opacity:1;stroke:#1d531d;stroke-width:25;stroke-linejoin:round;stroke-miterlimit:4;stroke-opacity:1;stroke-dasharray:none"
       d="m 350.0134,143.7991 c -199.61148,0 -361.437507,161.79477 -361.437507,361.40625 0,199.61148 161.826027,361.4375 361.437507,361.4375 199.61148,0 361.40625,-161.82602 361.40625,-361.4375 0,-199.61148 -161.79477,-361.40625 -361.40625,-361.40625 z m 0,163.46875 c 109.32454,0 197.9375,88.61296 197.9375,197.9375 0,109.32454 -88.61296,197.96875 -197.9375,197.96875 -109.32454,0 -197.96875,-88.64421 -197.96875,-197.96875 0,-109.32454 88.64421,-197.9375 197.96875,-197.9375 z"
       id="path2985"
       inkscape:connector-curvature="0" />
    <path
       inkscape:connector-curvature="0"
       id="path3026"
       d="m 350.0134,143.7991 c -199.61148,0 -361.43751,161.79477 -361.43751,361.40625 0,199.61148 161.82603,361.4375 361.43751,361.4375 199.61148,0 361.40625,-161.82602 361.40625,-361.4375 0,-199.61148 -161.79477,-361.40625 -361.40625,-361.40625 z m 0,163.46875 c 109.32454,0 197.9375,88.61296 197.9375,197.9375 0,109.32454 -88.61296,197.96875 -197.9375,197.96875 -109.32454,0 -197.96875,-88.64421 -197.96875,-197.96875 0,-109.32454 88.64421,-197.9375 197.96875,-197.9375 z"
       style="fill:#000000;fill-opacity:1;stroke:#000000;stroke-width:25;stroke-linejoin:round;stroke-miterlimit:4;stroke-opacity:1;stroke-dasharray:none" />
    <path
       style="font-size:medium;font-style:normal;font-variant:normal;font-weight:normal;font-stretch:normal;text-indent:0;text-align:start;text-decoration:none;line-height:normal;letter-spacing:normal;word-spacing:normal;text-transform:none;direction:ltr;block-progression:tb;writing-mode:lr-tb;text-anchor:start;baseline-shift:baseline;color:#000000;fill:#ffffff;fill-opacity:1;stroke:#000000;stroke-width:15;stroke-miterlimit:4;stroke-opacity:1;stroke-dasharray:none;marker:none;visibility:visible;display:inline;overflow:visible;enable-background:accumulate;font-family:Sans;-inkscape-font-specification:Sans"
       d="M 476.03125 472.78125 C 475.28564 472.79614 474.52952 472.84645 473.78125 472.9375 C 467.79508 473.66614 462.37807 476.73084 458.6875 481.5 C 455.10672 486.1273 453.52215 491.919 454.15625 497.71875 L 454.125 497.71875 L 470.875 761.15625 L 470.9375 761.9375 L 471.125 762.6875 C 473.80483 772.45241 482.62413 779.178 492.75 779.21875 C 499.9203 779.24575 506.59659 775.91031 510.875 770.15625 C 514.80104 764.87614 516.06749 758.23342 514.65625 751.875 L 498.875 493.15625 L 498.875 493 L 498.84375 492.8125 C 498.18326 486.81843 495.19562 481.36959 490.46875 477.625 C 486.9236 474.81657 482.67837 473.18523 478.25 472.84375 C 477.51194 472.78683 476.77686 472.76636 476.03125 472.78125 z M 739.59375 480.5625 C 739.03411 480.55847 738.48702 480.58204 737.9375 480.625 C 736.47212 480.73957 735.0402 481.02103 733.6875 481.46875 C 728.2767 483.25963 724.36078 487.15013 721.8125 491.5 C 719.26422 495.84987 717.9314 500.79367 718.09375 505.84375 C 718.2561 510.89383 720.10365 516.39116 724.5625 520.1875 L 724.75 520.34375 L 724.9375 520.46875 L 918.28125 665.6875 C 922.19768 668.62464 926.91706 670.19752 931.8125 670.1875 L 1189.0938 670.1875 C 1189.1357 670.18809 1189.1768 670.18714 1189.2188 670.1875 C 1195.2135 670.2391 1200.9467 667.93084 1205.2188 663.71875 L 1205.2188 663.6875 C 1209.5097 659.44772 1211.9375 653.72065 1211.9375 647.6875 C 1211.9375 641.66111 1209.532 635.92587 1205.25 631.6875 L 1205.2188 631.65625 C 1200.9467 627.44419 1195.2137 625.13581 1189.2188 625.1875 C 1189.1768 625.18786 1189.1357 625.18691 1189.0938 625.1875 L 939.3125 625.1875 L 751.96875 484.46875 L 751.6875 484.28125 L 751.40625 484.09375 C 747.64421 481.77356 743.51122 480.59068 739.59375 480.5625 z M 608.5625 539.71875 C 604.71276 539.7522 600.89985 540.7821 597.5 542.75 C 592.31928 545.7487 588.57416 550.65375 587.03125 556.4375 C 585.48833 562.22123 586.31378 568.31928 589.3125 573.5 L 703.09375 770.21875 C 703.11245 770.25215 703.13745 770.2793 703.15625 770.3125 C 707.32418 777.66409 715.17386 782.05733 723.625 781.71875 C 731.58868 781.40281 738.73717 776.94643 742.53125 769.9375 C 746.30939 762.95806 746.13344 754.60622 742.09375 747.78125 L 742.0625 747.6875 L 742.03125 747.6875 L 628.25 550.96875 C 625.25129 545.78805 620.37749 542.04291 614.59375 540.5 C 613.14781 540.11427 611.68571 539.87533 610.21875 539.78125 C 609.66864 539.74597 609.11246 539.71397 608.5625 539.71875 z M 317.34375 605.875 L 311.375 610.40625 L 292.8125 624.46875 L 22.84375 624.46875 L 22.71875 624.46875 C 16.72395 624.41715 10.99079 626.72541 6.71875 630.9375 C 2.4167 635.17902 0 640.92765 0 646.96875 C 0 653.00985 2.4167 658.75848 6.71875 663 C 10.99077 667.21206 16.72385 669.52044 22.71875 669.46875 C 22.76065 669.46839 22.80175 669.46934 22.84375 669.46875 L 300.34375 669.46875 C 305.24558 669.46575 309.96477 667.89118 313.875 664.9375 L 313.875 664.90625 L 313.90625 664.90625 L 338.5625 646.25 L 344.53125 641.71875 L 340 635.75 L 321.875 611.84375 L 317.34375 605.875 z "
       transform="translate(-263.125,112.60678)"
       id="path3810" />
    <path
       id="path3912"
       d="m 472.78125,406.33904 c 0.74561,-0.0149 1.50173,-0.0652 2.25,-0.15625 5.98617,-0.72864 11.40318,-3.79334 15.09375,-8.5625 3.58078,-4.6273 5.16535,-10.419 4.53125,-16.21875 l 0.0312,0 -16.75,-263.4375 -0.0625,-0.78125 -0.1875,-0.75 c -2.67983,-9.76491 -11.49913,-16.4905 -21.625,-16.53125 -7.1703,-0.027 -13.84659,3.30844 -18.125,9.0625 -3.92604,5.28011 -5.19249,11.92283 -3.78125,18.28125 l 15.7813,258.71875 0,0.15625 0.0312,0.1875 c 0.66049,5.99407 3.64813,11.44291 8.375,15.1875 3.54515,2.80843 7.79038,4.43977 12.21875,4.78125 0.73806,0.0569 1.47314,0.0774 2.21875,0.0625 z m -263.5625,-7.78125 c 0.55964,0.004 1.10673,-0.0195 1.65625,-0.0625 1.46538,-0.11457 2.8973,-0.39603 4.25,-0.84375 5.4108,-1.79088 9.32672,-5.68138 11.875,-10.03125 2.54828,-4.34987 3.8811,-9.29367 3.71875,-14.34375 -0.16235,-5.05008 -2.0099,-10.54741 -6.46875,-14.34375 l -0.1875,-0.15625 -0.1875,-0.125 L 30.53125,213.43279 c -3.91643,-2.93714 -8.63581,-4.51002 -13.53125,-4.5 l -257.2813,0 c -0.0419,-5.9e-4 -0.083,3.6e-4 -0.125,0 -5.9947,-0.0516 -11.7279,2.25666 -16,6.46875 l 0,0.0312 c -4.2909,4.23978 -6.7187,9.96685 -6.7187,16 0,6.02639 2.4055,11.76163 6.6875,16 l 0.0312,0.0312 c 4.2721,4.21206 10.0051,6.52044 16,6.46875 0.042,-3.6e-4 0.0831,5.9e-4 0.125,0 l 249.7813,0 187.34375,140.71875 0.28125,0.1875 0.28125,0.1875 c 3.76204,2.32019 7.89503,3.50307 11.8125,3.53125 z M 340.25,339.40154 c 3.84974,-0.0335 7.66265,-1.06335 11.0625,-3.03125 5.18072,-2.9987 8.92584,-7.90375 10.46875,-13.6875 1.54292,-5.78373 0.71747,-11.88178 -2.28125,-17.0625 L 245.71875,108.90154 c -0.0187,-0.0334 -0.0437,-0.0606 -0.0625,-0.0937 -4.16793,-7.35159 -12.01761,-11.74483 -20.46875,-11.40625 -7.96368,0.31594 -15.11217,4.77232 -18.90625,11.78125 -3.77814,6.97944 -3.60219,15.33128 0.4375,22.15625 l 0.0312,0.0937 0.0312,0 113.78135,196.71875 c 2.99871,5.1807 7.87251,8.92584 13.65625,10.46875 1.44594,0.38573 2.90804,0.62467 4.375,0.71875 0.55011,0.0353 1.10629,0.0673 1.65625,0.0625 z m 291.21875,-66.15625 5.96875,-4.53125 18.5625,-14.0625 269.96875,0 0.125,0 c 5.9948,0.0516 11.72796,-2.25666 16,-6.46875 4.30205,-4.24152 6.71875,-9.99015 6.71875,-16.03125 0,-6.0411 -2.4167,-11.78973 -6.71875,-16.03125 -4.27202,-4.21206 -10.0051,-6.52044 -16,-6.46875 -0.0419,3.6e-4 -0.083,-5.9e-4 -0.125,0 l -277.5,0 c -4.90183,0.003 -9.62102,1.57757 -13.53125,4.53125 l 0,0.0312 -0.0312,0 -24.65625,18.65625 -5.96875,4.53125 4.53125,5.96875 18.125,23.90625 4.53125,5.96875 z"
       style="font-size:medium;font-style:normal;font-variant:normal;font-weight:normal;font-stretch:normal;text-indent:0;text-align:start;text-decoration:none;line-height:normal;letter-spacing:normal;word-spacing:normal;text-transform:none;direction:ltr;block-progression:tb;writing-mode:lr-tb;text-anchor:start;baseline-shift:baseline;color:#000000;fill:#ffffff;fill-opacity:1;stroke:#000000;stroke-width:15;stroke-miterlimit:4;stroke-opacity:1;stroke-dasharray:none;marker:none;visibility:visible;display:inline;overflow:visible;enable-background:accumulate;font-family:Sans;-inkscape-font-specification:Sans"
       inkscape:connector-curvature="0" />
  </g>
</svg>
